<svg xmlns="http://www.w3.org/2000/svg" width="1004" height="1004" viewBox="0 0 1004 1004" version="1.1"><path d="M 492.750 16.745 C 497.837 16.927, 506.162 16.927, 511.250 16.745 C 516.337 16.564, 512.175 16.415, 502 16.415 C 491.825 16.415, 487.662 16.564, 492.750 16.745 M 471.621 28.111 C 288.058 39.813, 126.503 158.156, 59.500 330 C 16.489 440.310, 16.489 563.690, 59.500 674 C 107.684 797.579, 206.421 896.316, 330 944.500 C 440.310 987.511, 563.690 987.511, 674 944.500 C 797.616 896.302, 896.302 797.616, 944.500 674 C 987.511 563.690, 987.511 440.310, 944.500 330 C 892.805 197.416, 783.208 93.998, 647.951 50.170 C 591.973 32.030, 530.593 24.352, 471.621 28.111 M 479.963 43.076 C 389.635 47.039, 301.102 78.731, 227.500 133.449 C 194.228 158.184, 159.697 192.544, 134.991 225.500 C 70.264 311.841, 38.503 414.415, 43.105 522.250 C 47.045 614.576, 78.152 702.119, 133.449 776.500 C 158.184 809.772, 192.544 844.303, 225.500 869.009 C 300.893 925.528, 388.417 956.912, 481.750 960.895 C 589.585 965.497, 692.159 933.736, 778.500 869.009 C 811.456 844.303, 845.816 809.772, 870.551 776.500 C 925.848 702.119, 956.955 614.576, 960.895 522.250 C 965.454 415.425, 934.021 312.874, 870.551 227.500 C 845.816 194.228, 811.456 159.697, 778.500 134.991 C 713.262 86.085, 639.470 56.186, 559 46.055 C 546.006 44.419, 500.351 41.509, 498 42.166 C 497.725 42.243, 489.608 42.652, 479.963 43.076 M 529.500 97.935 C 524.604 99.127, 520.572 101.625, 516.796 105.805 C 512.207 110.883, 510.683 115.684, 511.180 123.493 C 511.941 135.433, 520.515 144.475, 532.224 145.684 C 554.906 148.025, 567.898 121.227, 552.019 104.855 C 545.831 98.474, 537.633 95.955, 529.500 97.935 M 195.500 124.852 C 188.900 130.251, 182.825 135.500, 182 136.517 C 181.175 137.534, 184.789 134.797, 190.031 130.433 C 195.274 126.070, 201.574 120.833, 204.031 118.795 C 206.489 116.757, 208.275 115.078, 208 115.064 C 207.725 115.049, 202.100 119.454, 195.500 124.852 M 800.410 119 C 810.241 127.543, 823.367 138.204, 822.012 136.543 C 821.193 135.541, 815.793 130.876, 810.012 126.178 C 798.412 116.751, 794.190 113.594, 800.410 119 M 168 148.902 C 161.675 154.865, 152.291 164.414, 147.147 170.122 L 137.793 180.500 148.228 169.581 C 153.967 163.576, 163.576 154.031, 169.581 148.371 C 175.586 142.711, 180.275 138.076, 180 138.070 C 179.725 138.065, 174.325 142.939, 168 148.902 M 834.419 148.216 C 840.424 153.961, 850.039 163.576, 855.784 169.581 L 866.230 180.500 856.057 169.308 C 850.462 163.152, 840.848 153.538, 834.692 147.943 L 823.500 137.770 834.419 148.216 M 490.500 140.858 C 486.888 143.087, 427.237 200.337, 424.757 203.956 C 423.798 205.355, 423.010 208.267, 423.007 210.427 C 422.999 214.848, 423.508 215.405, 452.500 242.723 L 467.500 256.856 467.856 288.178 C 468.245 322.312, 468.455 323.633, 473.967 326.483 C 480.699 329.964, 488.842 327.037, 491.052 320.343 C 492.903 314.735, 491.553 249.970, 489.503 246.005 C 488.713 244.479, 483.919 239.358, 478.848 234.627 L 469.629 226.024 472.064 223.409 C 473.404 221.971, 482.971 212.656, 493.325 202.708 L 512.150 184.622 523.515 196.061 C 529.765 202.352, 536.144 208.026, 537.690 208.670 C 539.676 209.496, 546.217 209.675, 560 209.277 C 577.002 208.788, 579.849 208.471, 582.225 206.808 C 588.021 202.749, 587.710 192.064, 581.665 187.596 C 579.063 185.671, 577.508 185.500, 562.665 185.500 L 546.500 185.500 532.959 171.500 C 525.512 163.800, 516.062 153.969, 511.959 149.654 C 501.492 138.644, 497.044 136.821, 490.500 140.858 M 130.780 188.364 C 127.326 192.415, 122.329 198.602, 119.675 202.114 C 116.519 206.292, 116.173 206.955, 118.675 204.031 C 128.291 192.797, 137.945 181, 137.523 181 C 137.268 181, 134.233 184.314, 130.780 188.364 M 873.567 190.031 C 883.192 201.595, 888.873 208.162, 887.433 206.059 C 884.905 202.368, 869.118 183.345, 867.457 181.988 C 866.454 181.170, 869.203 184.789, 873.567 190.031 M 565 236.045 C 552.184 239.352, 543.649 244.330, 533.388 254.484 C 525.889 261.904, 523.545 265.004, 520.143 272 C 514.572 283.457, 512.710 291.349, 512.710 303.500 C 512.710 315.651, 514.572 323.543, 520.143 335 C 525.685 346.398, 538.776 359.673, 550 365.278 C 570.355 375.442, 594.214 375.526, 613.993 365.503 C 630.866 356.954, 644.534 339.878, 649.617 321 C 651.982 312.216, 651.986 294.763, 649.624 286.128 C 644.205 266.311, 630.190 249.228, 612.500 240.878 C 597.984 234.026, 579.940 232.190, 565 236.045 M 369.007 236.136 C 353.724 238.405, 341.571 244.586, 329.947 256 C 321.386 264.407, 316.116 272.973, 312.209 284.833 C 310.089 291.270, 309.677 294.426, 309.645 304.500 C 309.578 325.443, 315.307 339.428, 329.942 354.049 C 339.382 363.480, 347.190 368.177, 360 372.132 C 369.475 375.056, 386.014 375.312, 396 372.688 C 420.727 366.190, 440.348 346.298, 446.492 321.500 C 448.678 312.679, 448.694 296.743, 446.526 288.500 C 444.318 280.105, 438.014 267.532, 432.672 260.869 C 418.316 242.964, 391.965 232.726, 369.007 236.136 M 570.265 256.542 C 554.192 260.870, 540.702 273.646, 535.895 289.091 C 531.956 301.746, 534.027 318.133, 540.923 328.880 C 547.680 339.409, 558.633 347.367, 570.693 350.508 C 603.233 358.984, 635.180 329.870, 630.029 296.434 C 625.712 268.408, 597.105 249.313, 570.265 256.542 M 366.754 258.084 C 360.640 259.525, 351.085 264.841, 345.915 269.677 C 319.078 294.779, 328.584 338.599, 363.581 351.107 C 371.953 354.099, 385.177 354.080, 393.946 351.064 C 409.847 345.594, 420.733 334.046, 425.525 317.563 C 427.843 309.589, 427.159 295.715, 424.052 287.676 C 419.014 274.642, 406.712 263.154, 393.385 259.037 C 386.357 256.866, 373.822 256.418, 366.754 258.084 M 265.500 396.884 C 252.673 400.252, 245.642 410.595, 248.046 422.560 C 249.267 428.638, 253.530 434.179, 259.347 437.252 C 265.623 440.567, 277.753 440.419, 284.512 436.945 C 291.660 433.271, 295.297 427.703, 295.810 419.647 C 296.263 412.534, 294.352 407.558, 289.342 402.803 C 284.065 397.795, 272.738 394.983, 265.500 396.884 M 462.863 396.652 C 461.412 396.905, 457.841 398.549, 454.927 400.306 C 448.036 404.461, 445 409.932, 445 418.197 C 445 430.581, 453.065 438.680, 466.455 439.743 C 482.772 441.039, 493.764 431.334, 492.817 416.468 C 492.297 408.303, 488.807 403.024, 481.621 399.534 C 476.564 397.077, 467.990 395.760, 462.863 396.652 M 92 496.577 L 92 581.154 133.750 580.760 C 172.726 580.393, 176.018 580.224, 183.296 578.213 C 194.579 575.095, 203.180 570.653, 209.794 564.530 C 219.222 555.802, 224.013 544.498, 223.988 531.040 C 223.957 514.023, 216.142 501.237, 201.645 494.486 L 194.790 491.293 198.298 489.125 C 203.618 485.837, 208.876 479.481, 212.362 472.123 C 215.314 465.894, 215.500 464.817, 215.500 454 C 215.500 443.466, 215.268 442.027, 212.738 436.875 C 209.669 430.626, 202.429 423.280, 196.215 420.110 C 183.933 413.844, 167.475 412.002, 123.750 412.001 L 92 412 92 496.577 M 525 496.577 L 525 581.154 566.750 580.760 C 605.904 580.391, 608.992 580.231, 616.410 578.183 C 643.631 570.669, 657 555.294, 657 531.500 C 657 512.900, 648.388 499.440, 632.492 493.196 L 627.582 491.267 630.645 489.683 C 632.330 488.812, 635.992 485.601, 638.784 482.546 C 650.159 470.100, 652.734 449.661, 644.800 434.777 C 641.202 428.025, 635.825 423.180, 627.930 419.574 C 614.436 413.411, 601.283 412.002, 557.250 412.001 L 525 412 525 496.577 M 136 462.500 L 136 478 147.250 477.924 C 153.438 477.882, 159.964 477.317, 161.753 476.668 C 175.466 471.694, 176.454 452.149, 163.193 448.176 C 161.034 447.529, 154.033 447, 147.634 447 L 136 447 136 462.500 M 570 462.603 L 570 478.206 582.324 477.853 C 593.730 477.526, 594.952 477.299, 598.721 474.804 C 606.412 469.713, 608.280 458.033, 602.387 451.882 C 598.635 447.966, 594.502 447.012, 581.250 447.006 L 570 447 570 462.603 M 374.831 449.023 C 358.924 451.708, 347.406 457.548, 336.468 468.475 C 323.109 481.822, 317.676 495.932, 317.783 517 C 317.911 542.217, 327.899 562.159, 346.422 574.179 C 359.425 582.617, 380.534 586.100, 397.500 582.608 C 406.314 580.793, 417.736 575.809, 422.704 571.609 L 425.907 568.900 421.353 561.200 C 418.848 556.965, 415.032 550.475, 412.871 546.777 L 408.943 540.054 404.222 542.908 C 393.870 549.165, 383.335 549.716, 375.745 544.397 C 358.591 532.376, 359.156 497.634, 376.672 487.338 C 380.745 484.944, 382.605 484.500, 388.569 484.500 C 394.654 484.500, 396.234 484.894, 399.919 487.330 C 403.995 490.025, 404.261 490.073, 405.495 488.330 C 406.208 487.324, 410.890 480.878, 415.900 474.008 L 425.009 461.515 422.754 459.744 C 418.206 456.172, 406.313 450.935, 399.500 449.504 C 392.012 447.932, 382.406 447.745, 374.831 449.023 M 860.640 449.485 C 845.357 452.670, 833.577 461.020, 827.793 472.768 C 825.135 478.168, 824.538 480.682, 824.206 487.873 C 823.710 498.637, 826.041 505.604, 832.567 512.863 C 838.909 519.917, 845.940 524.233, 861.002 530.316 C 868.244 533.241, 875.705 536.860, 877.584 538.360 C 881.971 541.860, 882.222 545.888, 878.250 549.030 C 875.790 550.976, 874.604 551.158, 867 550.758 C 857.888 550.279, 851.231 547.924, 841.695 541.804 C 838.891 540.005, 836.516 539.089, 836.004 539.608 C 835.520 540.099, 831.068 546.125, 826.110 553 L 817.095 565.500 820.259 568.249 C 824.761 572.162, 838.127 578.519, 847.500 581.206 C 854.227 583.135, 857.728 583.487, 869.500 583.417 C 881.698 583.345, 884.497 583.005, 891.244 580.775 C 900.762 577.630, 907.622 573.326, 913.449 566.846 C 919.951 559.614, 922.364 552.669, 922.427 541 C 922.473 532.715, 922.135 530.762, 919.786 525.730 C 914.573 514.564, 904.860 507.521, 885 500.510 C 871.736 495.827, 866.421 492.813, 865.590 489.505 C 862.985 479.122, 880.607 477.972, 896.417 487.492 C 899.671 489.452, 902.748 490.917, 903.253 490.749 C 903.758 490.581, 908.382 484.831, 913.528 477.971 L 922.884 465.500 920.192 463.285 C 915.931 459.780, 900.078 452.145, 893.500 450.430 C 884.961 448.204, 868.992 447.744, 860.640 449.485 M 249 517.500 L 249 581 271.500 581 L 294 581 294 517.500 L 294 454 271.500 454 L 249 454 249 517.500 M 447 517.500 L 447 581 469 581 L 491 581 491 517.500 L 491 454 469 454 L 447 454 447 517.500 M 679.244 500.750 C 679.577 541.158, 679.862 548.314, 681.346 553.500 C 687.161 573.818, 699.912 584.042, 719.355 583.976 C 733.243 583.928, 742.695 580.082, 753.140 570.229 C 756.939 566.645, 760.184 563.890, 760.351 564.107 C 760.518 564.323, 761.295 568.100, 762.078 572.500 L 763.502 580.500 781.751 580.773 L 800 581.045 800 517.523 L 800 454 777.500 454 L 755 454 755 494.567 L 755 535.133 752.420 538.516 C 747.689 544.719, 737.614 547.705, 730.520 545.007 C 728.892 544.389, 727.181 542.412, 725.976 539.757 C 724.169 535.775, 724.043 532.863, 724.022 494.750 L 724 454 701.430 454 L 678.860 454 679.244 500.750 M 16.415 502 C 16.415 512.175, 16.564 516.337, 16.745 511.250 C 16.927 506.162, 16.927 497.837, 16.745 492.750 C 16.564 487.662, 16.415 491.825, 16.415 502 M 987.415 502 C 987.415 512.175, 987.564 516.337, 987.745 511.250 C 987.927 506.162, 987.927 497.837, 987.745 492.750 C 987.564 487.662, 987.415 491.825, 987.415 502 M 136.226 528.630 L 136.500 546.500 145.991 546.791 C 162.606 547.300, 172.956 544.618, 177.412 538.649 C 180.424 534.616, 180.810 523.622, 178.092 519.290 C 174.230 513.135, 169.492 511.680, 151.726 511.193 L 135.953 510.760 136.226 528.630 M 570 529.128 L 570 547.256 583.750 546.721 C 591.313 546.426, 599.279 545.647, 601.453 544.989 C 613.463 541.357, 617.779 525.540, 609.120 516.888 C 604.467 512.238, 598.860 511, 582.451 511 L 570 511 570 529.128 M 513.500 618.954 C 510.266 620.292, 508.546 622.659, 481.502 663 C 467.307 684.175, 455.348 701.725, 454.928 702 C 454.507 702.275, 446.814 704.233, 437.831 706.352 L 421.500 710.204 379 686.075 C 355.625 672.804, 335.488 661.684, 334.250 661.365 C 328.439 659.863, 322.163 664.370, 321.320 670.648 C 320.271 678.470, 320.240 678.447, 369.371 706.302 L 414.468 731.870 422.205 762.685 L 429.942 793.500 429.974 833.500 C 429.992 855.500, 430.302 881.375, 430.664 891 L 431.322 908.500 434.561 911.750 C 437.331 914.530, 438.506 915, 442.677 915 C 448.289 915, 451.288 913.277, 453.662 908.689 C 455.161 905.793, 455.249 900.744, 454.620 853.778 L 453.928 802.056 456.714 801.428 C 458.246 801.082, 461.245 800.362, 463.377 799.827 C 465.510 799.292, 467.580 799.225, 467.978 799.677 C 468.376 800.130, 478.954 821.516, 491.486 847.203 C 504.017 872.889, 515.290 894.864, 516.537 896.035 C 521.354 900.560, 530.818 899.260, 534.552 893.561 C 538.176 888.030, 537.499 886.233, 511.153 831.500 L 486.123 779.500 478.540 749.191 L 470.958 718.882 499.563 676.310 C 517.220 650.033, 528.368 632.508, 528.690 630.524 C 529.997 622.467, 521.203 615.768, 513.500 618.954 M 419.385 646.617 C 413.653 648.650, 407.961 653.824, 404.505 660.141 C 400.595 667.287, 400.278 678.020, 403.767 685.100 C 406.655 690.963, 412.037 696.345, 417.900 699.233 C 424.980 702.722, 435.713 702.405, 442.859 698.495 C 463.965 686.949, 462.881 656.961, 441 647.077 C 435.607 644.641, 425.561 644.427, 419.385 646.617 M 464.299 655.503 C 463.119 656.330, 461.632 658.586, 460.994 660.517 C 459.995 663.546, 460.128 664.634, 461.968 668.433 C 463.973 672.576, 466.646 675.770, 467.374 674.893 C 469.370 672.486, 478 658.848, 478 658.102 C 478 654.553, 468.286 652.711, 464.299 655.503 M 540.215 676.257 C 535.505 677.766, 528.528 684.278, 525.979 689.544 C 524.532 692.532, 523.778 696.004, 523.755 699.783 C 523.694 709.757, 528.372 717.707, 537.096 722.456 C 549.756 729.346, 566.108 723.776, 572.129 710.522 C 576.113 701.753, 573.441 688.418, 566.376 681.809 C 559.909 675.758, 548.997 673.443, 540.215 676.257 M 433.250 683.787 C 425.413 686.299, 419 688.653, 419 689.017 C 419 690.048, 423.666 691.923, 427.930 692.605 C 432.611 693.353, 438.005 691.708, 442.061 688.295 C 444.818 685.975, 448.594 680.224, 447.824 679.517 C 447.646 679.354, 441.087 681.275, 433.250 683.787 M 493.180 695.119 C 490.254 699.560, 488.088 703.787, 488.367 704.513 C 488.645 705.239, 494.761 713.982, 501.958 723.941 L 515.042 742.050 510.013 769.227 C 507.246 784.175, 504.457 797.859, 503.815 799.635 C 502.730 802.635, 503.070 803.760, 508.573 815.377 C 511.833 822.258, 514.795 827.576, 515.156 827.194 C 515.517 826.812, 516.949 823.800, 518.338 820.500 L 520.863 814.500 525.914 814.636 C 528.692 814.711, 531.578 815.008, 532.327 815.295 C 533.406 815.709, 533.836 821.547, 534.399 843.413 L 535.109 871.009 538.178 877.566 C 541.755 885.211, 541.708 890.793, 538.021 895.971 C 536.102 898.665, 535.836 900.083, 536.193 905.694 C 536.568 911.576, 536.947 912.564, 539.822 915.132 C 545.292 920.019, 553.068 918.639, 556.401 912.189 C 557.575 909.917, 557.627 901.456, 556.735 857.658 L 555.679 805.816 560.553 779.014 L 565.427 752.213 604.561 728.089 C 643.839 703.876, 646 702.250, 646 696.903 C 646 691.724, 641.058 687, 635.638 687 C 634.391 687, 616.545 697.379, 595.981 710.065 L 558.591 733.131 543.779 730.315 L 528.966 727.500 514.363 707.250 C 506.331 696.112, 499.476 687.010, 499.130 687.023 C 498.783 687.035, 496.106 690.678, 493.180 695.119 M 532 704.089 C 532 704.605, 532.989 706.536, 534.197 708.380 C 539.143 715.924, 548.076 718.770, 556.597 715.516 C 559.112 714.556, 560.794 713.429, 560.335 713.013 C 558.751 711.577, 532 703.152, 532 704.089 M 119.684 802.143 C 122.333 805.521, 126.207 810.134, 128.294 812.393 C 130.380 814.652, 128.407 811.888, 123.909 806.250 C 119.412 800.612, 115.537 796, 115.299 796 C 115.062 796, 117.035 798.764, 119.684 802.143 M 882.439 803.250 C 879.256 807.237, 874.147 813.425, 871.085 817 C 868.023 820.575, 866.364 822.830, 867.399 822.012 C 868.433 821.193, 873.124 815.793, 877.822 810.012 C 882.521 804.230, 887.028 798.712, 887.838 797.750 C 888.647 796.788, 889.066 796, 888.768 796 C 888.469 796, 885.621 799.263, 882.439 803.250 M 138.108 824 C 146.308 833.660, 170.340 857.692, 180 865.892 C 186.620 871.512, 186.444 871.282, 178.500 863.937 C 166.999 853.303, 150.697 837.001, 140.063 825.500 C 132.718 817.556, 132.488 817.380, 138.108 824 M 844.543 845.329 C 831.023 858.986, 827.542 862.842, 834.735 856.192 C 844.012 847.615, 867.085 823.811, 865.861 824.079 C 865.663 824.123, 856.069 833.685, 844.543 845.329 M 483.729 844.634 C 482.481 846.663, 464.949 887.355, 464.427 889.433 C 463.044 894.947, 469.097 902.006, 475.200 901.996 C 480.818 901.987, 483.357 898.879, 489.815 884.103 C 493.217 876.320, 496 869.574, 496 869.114 C 496 867.304, 484.228 843.822, 483.729 844.634 M 813.468 873.830 C 793.491 890.796, 792.166 892.326, 810.012 877.822 C 819.090 870.444, 824.178 865.799, 822.872 866.080 C 822.668 866.124, 818.436 869.612, 813.468 873.830 M 191.607 875.706 C 196.411 880.143, 208 889.329, 208 888.701 C 208 888.463, 203.387 884.588, 197.750 880.091 C 192.113 875.593, 189.348 873.620, 191.607 875.706 M 492.750 987.745 C 497.837 987.927, 506.162 987.927, 511.250 987.745 C 516.337 987.564, 512.175 987.415, 502 987.415 C 491.825 987.415, 487.662 987.564, 492.750 987.745" stroke="none" fill="#f9fafa" fill-rule="evenodd"/><path d="M 466 17.635 C 393.345 23.971, 329.936 42.855, 268.752 76.380 C 178.649 125.751, 105.376 204.052, 61.725 297.612 C 39.783 344.643, 26.196 392.814, 19.309 448 C 17.839 459.785, 17.500 469.895, 17.500 502 C 17.500 544.220, 18.146 553.023, 23.586 585 C 48.016 728.590, 139.922 857.029, 268.752 927.620 C 324.592 958.217, 381.854 976.447, 448 984.687 C 459.772 986.154, 469.930 986.494, 502 986.494 C 544.220 986.494, 553.082 985.844, 585 980.414 C 739.891 954.061, 875.109 850.351, 942.275 706.388 C 964.217 659.357, 977.804 611.186, 984.691 556 C 987.310 535.007, 987.310 468.993, 984.691 448 C 979.149 403.592, 969.129 363.250, 954.267 325.500 C 896.276 178.208, 770.724 68.200, 617.592 30.506 C 577.232 20.572, 553.845 17.820, 507 17.496 C 486.925 17.357, 468.475 17.419, 466 17.635 M 471.621 28.111 C 288.058 39.813, 126.503 158.156, 59.500 330 C 16.489 440.310, 16.489 563.690, 59.500 674 C 107.684 797.579, 206.421 896.316, 330 944.500 C 440.310 987.511, 563.690 987.511, 674 944.500 C 797.616 896.302, 896.302 797.616, 944.500 674 C 987.511 563.690, 987.511 440.310, 944.500 330 C 892.805 197.416, 783.208 93.998, 647.951 50.170 C 591.973 32.030, 530.593 24.352, 471.621 28.111 M 479.963 43.076 C 389.635 47.039, 301.102 78.731, 227.500 133.449 C 194.228 158.184, 159.697 192.544, 134.991 225.500 C 70.264 311.841, 38.503 414.415, 43.105 522.250 C 47.045 614.576, 78.152 702.119, 133.449 776.500 C 158.184 809.772, 192.544 844.303, 225.500 869.009 C 300.893 925.528, 388.417 956.912, 481.750 960.895 C 589.585 965.497, 692.159 933.736, 778.500 869.009 C 811.456 844.303, 845.816 809.772, 870.551 776.500 C 925.848 702.119, 956.955 614.576, 960.895 522.250 C 965.454 415.425, 934.021 312.874, 870.551 227.500 C 845.816 194.228, 811.456 159.697, 778.500 134.991 C 713.262 86.085, 639.470 56.186, 559 46.055 C 546.006 44.419, 500.351 41.509, 498 42.166 C 497.725 42.243, 489.608 42.652, 479.963 43.076 M 529.500 97.935 C 524.604 99.127, 520.572 101.625, 516.796 105.805 C 512.207 110.883, 510.683 115.684, 511.180 123.493 C 511.941 135.433, 520.515 144.475, 532.224 145.684 C 554.906 148.025, 567.898 121.227, 552.019 104.855 C 545.831 98.474, 537.633 95.955, 529.500 97.935 M 490.500 140.858 C 486.888 143.087, 427.237 200.337, 424.757 203.956 C 423.798 205.355, 423.010 208.267, 423.007 210.427 C 422.999 214.848, 423.508 215.405, 452.500 242.723 L 467.500 256.856 467.856 288.178 C 468.245 322.312, 468.455 323.633, 473.967 326.483 C 480.699 329.964, 488.842 327.037, 491.052 320.343 C 492.903 314.735, 491.553 249.970, 489.503 246.005 C 488.713 244.479, 483.919 239.358, 478.848 234.627 L 469.629 226.024 472.064 223.409 C 473.404 221.971, 482.971 212.656, 493.325 202.708 L 512.150 184.622 523.515 196.061 C 529.765 202.352, 536.144 208.026, 537.690 208.670 C 539.676 209.496, 546.217 209.675, 560 209.277 C 577.002 208.788, 579.849 208.471, 582.225 206.808 C 588.021 202.749, 587.710 192.064, 581.665 187.596 C 579.063 185.671, 577.508 185.500, 562.665 185.500 L 546.500 185.500 532.959 171.500 C 525.512 163.800, 516.062 153.969, 511.959 149.654 C 501.492 138.644, 497.044 136.821, 490.500 140.858 M 565 236.045 C 552.184 239.352, 543.649 244.330, 533.388 254.484 C 525.889 261.904, 523.545 265.004, 520.143 272 C 514.572 283.457, 512.710 291.349, 512.710 303.500 C 512.710 315.651, 514.572 323.543, 520.143 335 C 525.685 346.398, 538.776 359.673, 550 365.278 C 570.355 375.442, 594.214 375.526, 613.993 365.503 C 630.866 356.954, 644.534 339.878, 649.617 321 C 651.982 312.216, 651.986 294.763, 649.624 286.128 C 644.205 266.311, 630.190 249.228, 612.500 240.878 C 597.984 234.026, 579.940 232.190, 565 236.045 M 369.007 236.136 C 353.724 238.405, 341.571 244.586, 329.947 256 C 321.386 264.407, 316.116 272.973, 312.209 284.833 C 310.089 291.270, 309.677 294.426, 309.645 304.500 C 309.578 325.443, 315.307 339.428, 329.942 354.049 C 339.382 363.480, 347.190 368.177, 360 372.132 C 369.475 375.056, 386.014 375.312, 396 372.688 C 420.727 366.190, 440.348 346.298, 446.492 321.500 C 448.678 312.679, 448.694 296.743, 446.526 288.500 C 444.318 280.105, 438.014 267.532, 432.672 260.869 C 418.316 242.964, 391.965 232.726, 369.007 236.136 M 570.265 256.542 C 554.192 260.870, 540.702 273.646, 535.895 289.091 C 531.956 301.746, 534.027 318.133, 540.923 328.880 C 547.680 339.409, 558.633 347.367, 570.693 350.508 C 603.233 358.984, 635.180 329.870, 630.029 296.434 C 625.712 268.408, 597.105 249.313, 570.265 256.542 M 366.754 258.084 C 360.640 259.525, 351.085 264.841, 345.915 269.677 C 319.078 294.779, 328.584 338.599, 363.581 351.107 C 371.953 354.099, 385.177 354.080, 393.946 351.064 C 409.847 345.594, 420.733 334.046, 425.525 317.563 C 427.843 309.589, 427.159 295.715, 424.052 287.676 C 419.014 274.642, 406.712 263.154, 393.385 259.037 C 386.357 256.866, 373.822 256.418, 366.754 258.084 M 265.500 396.884 C 252.673 400.252, 245.642 410.595, 248.046 422.560 C 249.267 428.638, 253.530 434.179, 259.347 437.252 C 265.623 440.567, 277.753 440.419, 284.512 436.945 C 291.660 433.271, 295.297 427.703, 295.810 419.647 C 296.263 412.534, 294.352 407.558, 289.342 402.803 C 284.065 397.795, 272.738 394.983, 265.500 396.884 M 462.863 396.652 C 461.412 396.905, 457.841 398.549, 454.927 400.306 C 448.036 404.461, 445 409.932, 445 418.197 C 445 430.581, 453.065 438.680, 466.455 439.743 C 482.772 441.039, 493.764 431.334, 492.817 416.468 C 492.297 408.303, 488.807 403.024, 481.621 399.534 C 476.564 397.077, 467.990 395.760, 462.863 396.652 M 92 496.577 L 92 581.154 133.750 580.760 C 172.726 580.393, 176.018 580.224, 183.296 578.213 C 194.579 575.095, 203.180 570.653, 209.794 564.530 C 219.222 555.802, 224.013 544.498, 223.988 531.040 C 223.957 514.023, 216.142 501.237, 201.645 494.486 L 194.790 491.293 198.298 489.125 C 203.618 485.837, 208.876 479.481, 212.362 472.123 C 215.314 465.894, 215.500 464.817, 215.500 454 C 215.500 443.466, 215.268 442.027, 212.738 436.875 C 209.669 430.626, 202.429 423.280, 196.215 420.110 C 183.933 413.844, 167.475 412.002, 123.750 412.001 L 92 412 92 496.577 M 525 496.577 L 525 581.154 566.750 580.760 C 605.904 580.391, 608.992 580.231, 616.410 578.183 C 643.631 570.669, 657 555.294, 657 531.500 C 657 512.900, 648.388 499.440, 632.492 493.196 L 627.582 491.267 630.645 489.683 C 632.330 488.812, 635.992 485.601, 638.784 482.546 C 650.159 470.100, 652.734 449.661, 644.800 434.777 C 641.202 428.025, 635.825 423.180, 627.930 419.574 C 614.436 413.411, 601.283 412.002, 557.250 412.001 L 525 412 525 496.577 M 136 462.500 L 136 478 147.250 477.924 C 153.438 477.882, 159.964 477.317, 161.753 476.668 C 175.466 471.694, 176.454 452.149, 163.193 448.176 C 161.034 447.529, 154.033 447, 147.634 447 L 136 447 136 462.500 M 570 462.603 L 570 478.206 582.324 477.853 C 593.730 477.526, 594.952 477.299, 598.721 474.804 C 606.412 469.713, 608.280 458.033, 602.387 451.882 C 598.635 447.966, 594.502 447.012, 581.250 447.006 L 570 447 570 462.603 M 374.831 449.023 C 358.924 451.708, 347.406 457.548, 336.468 468.475 C 323.109 481.822, 317.676 495.932, 317.783 517 C 317.911 542.217, 327.899 562.159, 346.422 574.179 C 359.425 582.617, 380.534 586.100, 397.500 582.608 C 406.314 580.793, 417.736 575.809, 422.704 571.609 L 425.907 568.900 421.353 561.200 C 418.848 556.965, 415.032 550.475, 412.871 546.777 L 408.943 540.054 404.222 542.908 C 393.870 549.165, 383.335 549.716, 375.745 544.397 C 358.591 532.376, 359.156 497.634, 376.672 487.338 C 380.745 484.944, 382.605 484.500, 388.569 484.500 C 394.654 484.500, 396.234 484.894, 399.919 487.330 C 403.995 490.025, 404.261 490.073, 405.495 488.330 C 406.208 487.324, 410.890 480.878, 415.900 474.008 L 425.009 461.515 422.754 459.744 C 418.206 456.172, 406.313 450.935, 399.500 449.504 C 392.012 447.932, 382.406 447.745, 374.831 449.023 M 860.640 449.485 C 845.357 452.670, 833.577 461.020, 827.793 472.768 C 825.135 478.168, 824.538 480.682, 824.206 487.873 C 823.710 498.637, 826.041 505.604, 832.567 512.863 C 838.909 519.917, 845.940 524.233, 861.002 530.316 C 868.244 533.241, 875.705 536.860, 877.584 538.360 C 881.971 541.860, 882.222 545.888, 878.250 549.030 C 875.790 550.976, 874.604 551.158, 867 550.758 C 857.888 550.279, 851.231 547.924, 841.695 541.804 C 838.891 540.005, 836.516 539.089, 836.004 539.608 C 835.520 540.099, 831.068 546.125, 826.110 553 L 817.095 565.500 820.259 568.249 C 824.761 572.162, 838.127 578.519, 847.500 581.206 C 854.227 583.135, 857.728 583.487, 869.500 583.417 C 881.698 583.345, 884.497 583.005, 891.244 580.775 C 900.762 577.630, 907.622 573.326, 913.449 566.846 C 919.951 559.614, 922.364 552.669, 922.427 541 C 922.473 532.715, 922.135 530.762, 919.786 525.730 C 914.573 514.564, 904.860 507.521, 885 500.510 C 871.736 495.827, 866.421 492.813, 865.590 489.505 C 862.985 479.122, 880.607 477.972, 896.417 487.492 C 899.671 489.452, 902.748 490.917, 903.253 490.749 C 903.758 490.581, 908.382 484.831, 913.528 477.971 L 922.884 465.500 920.192 463.285 C 915.931 459.780, 900.078 452.145, 893.500 450.430 C 884.961 448.204, 868.992 447.744, 860.640 449.485 M 249 517.500 L 249 581 271.500 581 L 294 581 294 517.500 L 294 454 271.500 454 L 249 454 249 517.500 M 447 517.500 L 447 581 469 581 L 491 581 491 517.500 L 491 454 469 454 L 447 454 447 517.500 M 679.244 500.750 C 679.577 541.158, 679.862 548.314, 681.346 553.500 C 687.161 573.818, 699.912 584.042, 719.355 583.976 C 733.243 583.928, 742.695 580.082, 753.140 570.229 C 756.939 566.645, 760.184 563.890, 760.351 564.107 C 760.518 564.323, 761.295 568.100, 762.078 572.500 L 763.502 580.500 781.751 580.773 L 800 581.045 800 517.523 L 800 454 777.500 454 L 755 454 755 494.567 L 755 535.133 752.420 538.516 C 747.689 544.719, 737.614 547.705, 730.520 545.007 C 728.892 544.389, 727.181 542.412, 725.976 539.757 C 724.169 535.775, 724.043 532.863, 724.022 494.750 L 724 454 701.430 454 L 678.860 454 679.244 500.750 M 136.226 528.630 L 136.500 546.500 145.991 546.791 C 162.606 547.300, 172.956 544.618, 177.412 538.649 C 180.424 534.616, 180.810 523.622, 178.092 519.290 C 174.230 513.135, 169.492 511.680, 151.726 511.193 L 135.953 510.760 136.226 528.630 M 570 529.128 L 570 547.256 583.750 546.721 C 591.313 546.426, 599.279 545.647, 601.453 544.989 C 613.463 541.357, 617.779 525.540, 609.120 516.888 C 604.467 512.238, 598.860 511, 582.451 511 L 570 511 570 529.128 M 513.500 618.954 C 510.266 620.292, 508.546 622.659, 481.502 663 C 467.307 684.175, 455.348 701.725, 454.928 702 C 454.507 702.275, 446.814 704.233, 437.831 706.352 L 421.500 710.204 379 686.075 C 355.625 672.804, 335.488 661.684, 334.250 661.365 C 328.439 659.863, 322.163 664.370, 321.320 670.648 C 320.271 678.470, 320.240 678.447, 369.371 706.302 L 414.468 731.870 422.205 762.685 L 429.942 793.500 429.974 833.500 C 429.992 855.500, 430.302 881.375, 430.664 891 L 431.322 908.500 434.561 911.750 C 437.331 914.530, 438.506 915, 442.677 915 C 448.289 915, 451.288 913.277, 453.662 908.689 C 455.161 905.793, 455.249 900.744, 454.620 853.778 L 453.928 802.056 456.714 801.428 C 458.246 801.082, 461.245 800.362, 463.377 799.827 C 465.510 799.292, 467.580 799.225, 467.978 799.677 C 468.376 800.130, 478.954 821.516, 491.486 847.203 C 504.017 872.889, 515.290 894.864, 516.537 896.035 C 521.354 900.560, 530.818 899.260, 534.552 893.561 C 538.176 888.030, 537.499 886.233, 511.153 831.500 L 486.123 779.500 478.540 749.191 L 470.958 718.882 499.563 676.310 C 517.220 650.033, 528.368 632.508, 528.690 630.524 C 529.997 622.467, 521.203 615.768, 513.500 618.954 M 419.385 646.617 C 413.653 648.650, 407.961 653.824, 404.505 660.141 C 400.595 667.287, 400.278 678.020, 403.767 685.100 C 406.655 690.963, 412.037 696.345, 417.900 699.233 C 424.980 702.722, 435.713 702.405, 442.859 698.495 C 463.965 686.949, 462.881 656.961, 441 647.077 C 435.607 644.641, 425.561 644.427, 419.385 646.617 M 464.299 655.503 C 463.119 656.330, 461.632 658.586, 460.994 660.517 C 459.995 663.546, 460.128 664.634, 461.968 668.433 C 463.973 672.576, 466.646 675.770, 467.374 674.893 C 469.370 672.486, 478 658.848, 478 658.102 C 478 654.553, 468.286 652.711, 464.299 655.503 M 540.215 676.257 C 535.505 677.766, 528.528 684.278, 525.979 689.544 C 524.532 692.532, 523.778 696.004, 523.755 699.783 C 523.694 709.757, 528.372 717.707, 537.096 722.456 C 549.756 729.346, 566.108 723.776, 572.129 710.522 C 576.113 701.753, 573.441 688.418, 566.376 681.809 C 559.909 675.758, 548.997 673.443, 540.215 676.257 M 433.250 683.787 C 425.413 686.299, 419 688.653, 419 689.017 C 419 690.048, 423.666 691.923, 427.930 692.605 C 432.611 693.353, 438.005 691.708, 442.061 688.295 C 444.818 685.975, 448.594 680.224, 447.824 679.517 C 447.646 679.354, 441.087 681.275, 433.250 683.787 M 493.180 695.119 C 490.254 699.560, 488.088 703.787, 488.367 704.513 C 488.645 705.239, 494.761 713.982, 501.958 723.941 L 515.042 742.050 510.013 769.227 C 507.246 784.175, 504.457 797.859, 503.815 799.635 C 502.730 802.635, 503.070 803.760, 508.573 815.377 C 511.833 822.258, 514.795 827.576, 515.156 827.194 C 515.517 826.812, 516.949 823.800, 518.338 820.500 L 520.863 814.500 525.914 814.636 C 528.692 814.711, 531.578 815.008, 532.327 815.295 C 533.406 815.709, 533.836 821.547, 534.399 843.413 L 535.109 871.009 538.178 877.566 C 541.755 885.211, 541.708 890.793, 538.021 895.971 C 536.102 898.665, 535.836 900.083, 536.193 905.694 C 536.568 911.576, 536.947 912.564, 539.822 915.132 C 545.292 920.019, 553.068 918.639, 556.401 912.189 C 557.575 909.917, 557.627 901.456, 556.735 857.658 L 555.679 805.816 560.553 779.014 L 565.427 752.213 604.561 728.089 C 643.839 703.876, 646 702.250, 646 696.903 C 646 691.724, 641.058 687, 635.638 687 C 634.391 687, 616.545 697.379, 595.981 710.065 L 558.591 733.131 543.779 730.315 L 528.966 727.500 514.363 707.250 C 506.331 696.112, 499.476 687.010, 499.130 687.023 C 498.783 687.035, 496.106 690.678, 493.180 695.119 M 532 704.089 C 532 704.605, 532.989 706.536, 534.197 708.380 C 539.143 715.924, 548.076 718.770, 556.597 715.516 C 559.112 714.556, 560.794 713.429, 560.335 713.013 C 558.751 711.577, 532 703.152, 532 704.089 M 483.729 844.634 C 482.481 846.663, 464.949 887.355, 464.427 889.433 C 463.044 894.947, 469.097 902.006, 475.200 901.996 C 480.818 901.987, 483.357 898.879, 489.815 884.103 C 493.217 876.320, 496 869.574, 496 869.114 C 496 867.304, 484.228 843.822, 483.729 844.634" stroke="none" fill="#045c8c" fill-rule="evenodd"/></svg>